<?xml version="1.0" standalone="no"?>
<!DOCTYPE svg PUBLIC "-//W3C//DTD SVG 20010904//EN"
 "http://www.w3.org/TR/2001/REC-SVG-20010904/DTD/svg10.dtd">
<svg version="1.0" xmlns="http://www.w3.org/2000/svg"
 width="512.000000pt" height="391.000000pt" viewBox="0 0 512.000000 391.000000"
 preserveAspectRatio="xMidYMid meet">

<g transform="translate(0.000000,391.000000) scale(0.100000,-0.100000)"
fill="#FFFFFF" stroke="none">
<path d="M3075 3817 c-46 -21 -96 -68 -111 -104 -11 -24 -14 -92 -14 -270 0
-229 1 -239 23 -275 93 -155 370 -135 426 31 7 21 11 116 11 255 -1 211 -2
223 -24 266 -15 31 -38 55 -71 75 -42 26 -59 30 -129 33 -52 1 -92 -3 -111
-11z m164 -152 c13 -13 17 -48 19 -193 2 -97 1 -191 -3 -209 -11 -62 -104 -81
-140 -30 -12 17 -15 59 -15 218 l0 198 27 21 c32 25 85 22 112 -5z"/>
<path d="M429 3803 c-15 -17 -26 -223 -15 -268 14 -55 12 -55 347 -55 l309 0
0 170 0 170 -314 0 c-279 0 -315 -2 -327 -17z"/>
<path d="M1190 3445 l0 -375 80 0 80 0 1 168 0 167 19 -43 c11 -24 41 -99 66
-167 l47 -125 78 0 79 0 0 375 0 375 -75 0 -75 0 0 -160 c0 -88 -4 -160 -8
-160 -5 0 -35 72 -68 160 l-59 160 -82 0 -83 0 0 -375z"/>
<path d="M1866 3798 c-3 -13 -17 -77 -32 -143 -56 -251 -65 -291 -74 -335 -5
-25 -17 -76 -25 -115 -9 -38 -19 -85 -22 -102 l-6 -33 77 0 76 0 6 40 7 40 72
0 72 0 7 -40 6 -40 79 0 78 0 -78 353 c-43 193 -81 362 -84 375 -5 20 -11 22
-80 22 -69 0 -75 -2 -79 -22z m102 -409 c20 -87 17 -99 -23 -99 -30 0 -35 3
-35 24 0 43 23 126 35 126 6 0 17 -23 23 -51z"/>
<path d="M2190 3750 l0 -70 65 0 65 0 0 -305 0 -305 80 0 80 0 0 305 0 305 60
0 60 0 0 70 0 70 -205 0 -205 0 0 -70z"/>
<path d="M2700 3445 l0 -375 75 0 75 0 0 375 0 375 -75 0 -75 0 0 -375z"/>
<path d="M3510 3445 l0 -375 75 0 75 0 0 155 c0 85 4 155 9 155 4 0 35 -70 67
-155 l58 -155 78 0 78 0 0 375 0 375 -75 0 -75 0 0 -155 c0 -87 -4 -155 -9
-155 -9 0 -25 38 -97 232 l-29 78 -77 0 -78 0 0 -375z"/>
<path d="M4180 3815 c0 -3 -28 -128 -61 -278 -34 -149 -65 -288 -69 -307 -15
-66 -30 -143 -30 -151 0 -5 34 -9 75 -9 73 0 75 0 81 28 3 15 7 33 10 40 2 8
26 12 73 12 l69 0 7 -40 7 -40 79 0 c58 0 77 3 74 13 -2 6 -38 167 -80 357
-42 190 -78 353 -81 363 -5 14 -17 17 -80 17 -41 0 -74 -2 -74 -5z m101 -431
c8 -46 13 -86 11 -89 -11 -11 -63 -4 -68 9 -5 13 2 64 22 155 8 37 17 16 35
-75z"/>
<path d="M4570 3445 l0 -375 180 0 180 0 0 73 0 72 -102 0 -103 0 -3 303 -2
302 -75 0 -75 0 0 -375z"/>
<path d="M670 3220 l0 -150 154 0 c167 0 186 -6 186 -55 0 -49 -19 -55 -186
-55 l-154 0 0 -110 0 -110 154 0 c167 0 186 -6 186 -55 0 -49 -19 -55 -186
-55 l-154 0 0 -110 0 -110 154 0 c167 0 186 -6 186 -55 0 -50 -18 -55 -191
-55 -157 0 -159 0 -163 -22 -3 -13 -13 -62 -24 -110 l-19 -88 178 0 c172 0
178 -1 193 -22 21 -30 20 -44 -4 -68 -19 -19 -33 -20 -213 -20 l-193 0 -30
-62 c-35 -75 -95 -169 -222 -346 -52 -73 -93 -134 -91 -136 2 -2 49 -20 104
-41 139 -53 184 -52 335 4 100 38 125 44 195 44 58 0 95 -6 135 -22 30 -11 58
-21 63 -21 4 0 7 445 7 990 l0 990 -200 0 -200 0 0 -150z"/>
<path d="M1320 2873 c-30 -16 -68 -45 -84 -66 l-31 -39 -3 -259 c-3 -238 -2
-262 16 -302 49 -111 216 -161 344 -103 106 47 128 95 128 276 l0 130 -120 0
-120 0 0 -80 0 -80 40 0 c39 0 40 -1 40 -35 0 -76 -87 -113 -144 -60 l-26 24
0 211 c0 211 0 211 25 235 52 52 135 15 135 -61 0 -34 2 -36 26 -30 15 4 40 9
58 12 84 14 79 10 74 70 -9 105 -110 184 -238 184 -53 0 -77 -6 -120 -27z"/>
<path d="M1790 2490 l0 -400 205 0 205 0 0 75 0 75 -120 0 -120 0 0 85 0 85
100 0 100 0 0 75 0 75 -100 0 -100 0 0 90 0 90 120 0 120 0 0 75 0 75 -205 0
-205 0 0 -400z"/>
<path d="M2310 2487 l0 -403 80 -3 80 -2 0 144 c0 116 3 147 15 157 12 10 16
8 23 -11 5 -13 31 -84 58 -156 l49 -133 83 0 82 0 0 405 0 405 -80 0 -80 0 -2
-160 c-2 -99 -7 -160 -13 -159 -5 1 -37 73 -70 160 l-60 159 -82 0 -83 0 0
-403z"/>
<path d="M2900 2486 l0 -405 205 -1 205 -1 0 81 0 80 -125 0 -125 0 0 80 0 79
103 3 102 3 3 78 3 77 -106 0 -105 0 0 85 0 85 125 0 125 0 0 80 0 80 -205 0
-205 0 0 -404z"/>
<path d="M3417 2784 c-3 -60 -5 -242 -4 -404 l2 -295 80 0 80 0 3 148 c3 146
3 148 24 145 19 -2 31 -27 77 -150 l54 -148 88 0 89 0 -21 53 c-12 28 -40 102
-64 164 l-43 112 38 25 c57 38 80 94 80 199 0 100 -12 138 -61 184 -59 56 -98
66 -265 71 l-151 4 -6 -108z m302 -80 c14 -18 21 -41 21 -69 0 -28 -7 -51 -21
-69 -18 -23 -28 -26 -80 -26 l-59 0 0 95 0 95 59 0 c52 0 62 -3 80 -26z"/>
<path d="M4126 2848 c-7 -39 -4 -26 -95 -430 -39 -175 -71 -322 -71 -328 0 -6
33 -10 79 -10 l79 0 11 45 12 46 72 -3 72 -3 9 -42 10 -43 83 0 c46 0 83 1 83
3 0 1 -40 180 -88 397 l-88 395 -81 3 -80 3 -7 -33z m111 -414 c6 -27 12 -64
12 -81 1 -32 0 -33 -40 -33 -40 0 -41 0 -34 33 22 110 29 137 39 134 6 -2 16
-26 23 -53z"/>
<path d="M4550 2617 c0 -145 -3 -325 -7 -400 l-6 -137 196 0 197 0 0 80 0 80
-110 0 -110 0 0 320 0 320 -80 0 -80 0 0 -263z"/>
<path d="M1375 1891 c-103 -27 -162 -91 -172 -184 -15 -144 25 -203 192 -286
117 -58 145 -87 145 -152 0 -49 -29 -74 -87 -74 -56 0 -83 28 -83 87 0 33 -3
38 -17 34 -10 -3 -40 -10 -68 -16 -82 -18 -85 -19 -85 -49 0 -62 14 -95 59
-142 36 -37 59 -51 105 -64 200 -58 376 72 351 259 -13 103 -56 151 -205 230
-94 49 -140 92 -140 131 0 60 82 95 133 55 21 -17 27 -30 27 -60 0 -21 3 -41
8 -43 4 -2 43 3 87 12 l80 16 -1 46 c-4 115 -96 196 -232 204 -37 2 -80 1 -97
-4z"/>
<path d="M1967 1885 c-64 -21 -131 -87 -147 -143 -7 -29 -10 -128 -8 -302 l3
-258 30 -44 c21 -28 50 -53 90 -73 51 -26 69 -30 139 -30 68 1 89 5 133 28 75
39 123 112 123 188 0 31 2 30 -107 53 l-63 13 0 -28 c0 -58 -38 -99 -91 -99
-30 0 -77 30 -83 54 -8 29 -7 415 0 444 7 25 51 52 83 52 34 0 74 -43 80 -86
l6 -40 80 16 80 15 -1 54 c-2 69 -39 123 -111 163 -64 36 -163 46 -236 23z"/>
<path d="M4037 1885 c-62 -20 -131 -87 -146 -140 -14 -51 -15 -507 -1 -557 15
-51 48 -88 112 -123 47 -27 63 -30 138 -30 71 0 93 4 134 25 77 39 126 114
126 193 0 27 -4 30 -85 47 -27 6 -58 13 -67 16 -14 4 -18 -1 -18 -25 0 -44
-19 -78 -51 -91 -37 -16 -84 -4 -109 27 -19 24 -20 40 -20 232 0 113 3 216 6
229 7 25 51 52 83 52 34 0 72 -41 78 -85 l5 -41 85 15 85 15 -5 55 c-8 71 -45
124 -114 163 -64 36 -163 46 -236 23z"/>
<path d="M2430 1465 l0 -425 85 0 85 0 0 425 0 425 -85 0 -85 0 0 -425z"/>
<path d="M2720 1465 l0 -425 215 0 215 0 0 80 0 80 -125 0 -125 0 0 90 0 90
105 0 105 0 0 80 0 80 -105 0 -105 0 0 95 0 95 125 0 125 0 0 80 0 80 -215 0
-215 0 0 -425z"/>
<path d="M3270 1465 l0 -425 90 0 90 0 0 176 c0 96 4 173 9 170 4 -3 37 -82
72 -176 l64 -170 88 0 87 0 0 425 0 425 -85 0 -85 0 -2 -170 c-2 -98 -7 -170
-12 -171 -9 0 -40 75 -117 284 l-22 57 -88 0 -89 0 0 -425z"/>
<path d="M4500 1465 l0 -425 215 0 215 0 0 80 0 80 -125 0 -125 0 0 90 0 90
105 0 105 0 0 80 0 80 -105 0 -106 0 3 93 3 92 123 3 122 3 0 79 0 80 -215 0
-215 0 0 -425z"/>
<path d="M815 1320 c-22 -5 -83 -25 -135 -45 -65 -26 -116 -38 -165 -42 -63
-4 -81 0 -185 37 -158 58 -165 59 -183 24 -31 -61 -75 -202 -87 -283 -17 -110
-8 -291 20 -396 38 -148 139 -330 236 -428 72 -73 62 -72 427 -75 l327 -3 0
69 0 69 -40 7 c-74 12 -140 92 -140 171 0 69 48 138 104 150 12 2 33 6 49 10
l27 5 0 110 0 110 -26 0 c-38 0 -94 59 -94 99 0 43 46 93 88 95 l32 1 0 131 0
132 -72 25 c-89 31 -131 37 -183 27z m-314 -290 c118 -60 133 -236 29 -323
-116 -98 -296 -22 -317 132 -10 73 43 167 112 197 46 20 129 17 176 -6z m130
-599 c21 -22 29 -39 29 -66 0 -51 -44 -95 -95 -95 -51 0 -95 44 -95 95 0 27 8
44 29 66 22 21 39 29 66 29 27 0 44 -8 66 -29z"/>
<path d="M362 933 c-16 -6 -42 -56 -42 -82 0 -29 40 -70 76 -77 44 -8 94 35
94 81 0 49 -33 85 -78 84 -20 0 -43 -3 -50 -6z"/>
<path d="M1338 830 c-73 -22 -120 -73 -137 -150 -14 -60 -14 -356 0 -420 19
-88 90 -146 193 -157 98 -10 185 31 224 107 21 42 22 56 22 257 0 271 -9 300
-115 349 -52 25 -132 31 -187 14z m134 -147 c16 -15 18 -35 18 -211 0 -222 -3
-232 -71 -232 -29 0 -42 6 -58 26 -20 25 -21 40 -21 210 0 171 1 185 20 204
25 25 86 27 112 3z"/>
<path d="M1730 470 l0 -360 175 0 175 0 0 70 0 70 -100 0 -100 0 0 290 0 290
-75 0 -75 0 0 -360z"/>
<path d="M2030 826 c0 -3 34 -90 75 -194 l75 -189 0 -167 0 -166 75 0 75 0 0
163 0 162 75 190 c41 104 75 194 75 198 0 4 -32 7 -72 5 l-71 -3 -34 -99 c-18
-55 -37 -104 -42 -109 -9 -9 -32 44 -67 156 l-18 57 -73 0 c-40 0 -73 -2 -73
-4z"/>
<path d="M2560 470 l0 -360 70 0 70 0 0 170 c0 94 4 170 9 170 5 0 23 -36 42
-80 l33 -80 56 0 57 0 33 75 c18 41 37 75 41 75 5 0 9 -74 9 -165 l0 -165 75
0 75 0 0 360 0 360 -78 0 -78 0 -64 -175 c-35 -96 -67 -171 -72 -167 -6 6 -40
96 -115 300 l-16 42 -73 0 -74 0 0 -360z"/>
<path d="M3230 470 l0 -360 70 0 69 0 3 102 3 103 70 6 c163 13 225 85 225
260 0 124 -36 190 -125 230 -32 15 -66 19 -177 19 l-138 0 0 -360z m239 219
c42 -15 51 -35 51 -118 0 -92 -16 -111 -95 -111 l-55 0 0 113 c0 63 3 117 7
120 10 11 56 8 92 -4z"/>
<path d="M3750 470 l0 -360 75 0 75 0 0 360 0 360 -75 0 -75 0 0 -360z"/>
<path d="M4047 482 c-42 -191 -77 -353 -77 -360 0 -10 19 -12 73 -10 l72 3 5
35 5 35 68 3 c71 3 69 4 81 -50 6 -27 8 -28 79 -28 l74 0 -53 238 c-29 130
-65 292 -80 360 l-28 122 -71 0 -71 0 -77 -348z m169 -48 c21 -101 20 -104
-21 -104 -39 0 -42 8 -26 70 5 19 12 52 16 74 3 21 9 36 11 33 3 -3 12 -36 20
-73z"/>
<path d="M4500 470 l0 -360 138 0 c114 0 144 4 177 20 53 25 68 38 94 80 20
33 21 48 21 260 0 212 -1 227 -21 260 -26 42 -41 55 -94 80 -33 16 -63 20
-177 20 l-138 0 0 -360z m245 216 c44 -19 47 -38 43 -245 -3 -187 -5 -191 -90
-191 -39 0 -48 3 -48 18 0 9 -3 67 -6 128 -4 62 -3 155 1 208 l7 96 29 0 c16
0 45 -6 64 -14z"/>
<path d="M1022 470 c-27 -26 -28 -64 -2 -90 38 -38 50 -27 50 45 0 71 -10 80
-48 45z"/>
</g>
</svg>
